<svg xmlns="http://www.w3.org/2000/svg" xmlns:xlink="http://www.w3.org/1999/xlink" width="1024" zoomAndPan="magnify" viewBox="0 0 768 767.999994" height="1024" preserveAspectRatio="xMidYMid meet" version="1.0"><defs><clipPath id="2295c64d4f"><path d="M 76.214844 76.800781 L 691.964844 76.800781 L 691.964844 692.550781 L 76.214844 692.550781 Z M 76.214844 76.800781 " clip-rule="nonzero"/></clipPath><clipPath id="9fa53c8b94"><path d="M 249.101562 185.84375 L 519.101562 185.84375 L 519.101562 583 L 249.101562 583 Z M 249.101562 185.84375 " clip-rule="nonzero"/></clipPath></defs><g clip-path="url(#2295c64d4f)"><path fill="#ff1616" d="M 691.964844 384.675781 C 691.964844 389.714844 691.839844 394.75 691.59375 399.78125 C 691.34375 404.8125 690.976562 409.835938 690.480469 414.851562 C 689.988281 419.867188 689.371094 424.867188 688.632812 429.851562 C 687.890625 434.832031 687.03125 439.796875 686.046875 444.738281 C 685.066406 449.679688 683.960938 454.59375 682.738281 459.484375 C 681.511719 464.371094 680.167969 469.226562 678.707031 474.046875 C 677.242188 478.867188 675.664062 483.652344 673.964844 488.394531 C 672.269531 493.140625 670.457031 497.839844 668.527344 502.492188 C 666.601562 507.148438 664.558594 511.753906 662.402344 516.308594 C 660.25 520.863281 657.984375 525.363281 655.609375 529.804688 C 653.234375 534.25 650.753906 538.632812 648.160156 542.953125 C 645.570312 547.277344 642.875 551.53125 640.078125 555.722656 C 637.277344 559.910156 634.378906 564.027344 631.375 568.074219 C 628.375 572.121094 625.277344 576.09375 622.078125 579.988281 C 618.882812 583.882812 615.59375 587.699219 612.207031 591.429688 C 608.824219 595.164062 605.351562 598.8125 601.789062 602.375 C 598.226562 605.9375 594.578125 609.410156 590.84375 612.796875 C 587.113281 616.179688 583.296875 619.46875 579.402344 622.664062 C 575.507812 625.863281 571.535156 628.960938 567.488281 631.960938 C 563.441406 634.964844 559.324219 637.863281 555.136719 640.664062 C 550.945312 643.460938 546.691406 646.15625 542.367188 648.746094 C 538.046875 651.339844 533.664062 653.820312 529.21875 656.195312 C 524.777344 658.570312 520.277344 660.835938 515.722656 662.992188 C 511.167969 665.144531 506.5625 667.1875 501.90625 669.113281 C 497.253906 671.042969 492.550781 672.855469 487.808594 674.550781 C 483.0625 676.25 478.28125 677.832031 473.460938 679.292969 C 468.636719 680.753906 463.785156 682.097656 458.894531 683.324219 C 454.007812 684.546875 449.09375 685.652344 444.152344 686.632812 C 439.210938 687.617188 434.246094 688.476562 429.261719 689.21875 C 424.277344 689.957031 419.28125 690.574219 414.265625 691.066406 C 409.25 691.5625 404.226562 691.933594 399.195312 692.179688 C 394.164062 692.425781 389.128906 692.550781 384.089844 692.550781 C 379.050781 692.550781 374.015625 692.425781 368.980469 692.179688 C 363.949219 691.933594 358.925781 691.5625 353.910156 691.066406 C 348.898438 690.574219 343.898438 689.957031 338.914062 689.21875 C 333.929688 688.476562 328.96875 687.617188 324.023438 686.632812 C 319.082031 685.652344 314.167969 684.546875 309.28125 683.324219 C 304.394531 682.097656 299.539062 680.753906 294.71875 679.292969 C 289.894531 677.832031 285.113281 676.25 280.367188 674.550781 C 275.625 672.855469 270.925781 671.042969 266.269531 669.113281 C 261.613281 667.1875 257.011719 665.144531 252.457031 662.992188 C 247.898438 660.835938 243.402344 658.570312 238.957031 656.195312 C 234.515625 653.820312 230.132812 651.339844 225.808594 648.746094 C 221.488281 646.15625 217.230469 643.460938 213.042969 640.664062 C 208.851562 637.863281 204.734375 634.964844 200.6875 631.960938 C 196.640625 628.960938 192.667969 625.863281 188.773438 622.664062 C 184.878906 619.46875 181.066406 616.179688 177.332031 612.796875 C 173.597656 609.410156 169.949219 605.9375 166.386719 602.375 C 162.824219 598.8125 159.351562 595.164062 155.96875 591.429688 C 152.585938 587.699219 149.292969 583.882812 146.097656 579.988281 C 142.902344 576.09375 139.800781 572.121094 136.800781 568.074219 C 133.800781 564.027344 130.898438 559.910156 128.101562 555.722656 C 125.300781 551.53125 122.605469 547.277344 120.015625 542.953125 C 117.425781 538.632812 114.941406 534.25 112.566406 529.804688 C 110.191406 525.363281 107.925781 520.863281 105.773438 516.308594 C 103.617188 511.753906 101.578125 507.148438 99.648438 502.492188 C 97.722656 497.839844 95.910156 493.140625 94.210938 488.394531 C 92.511719 483.652344 90.933594 478.867188 89.46875 474.046875 C 88.007812 469.226562 86.664062 464.371094 85.441406 459.480469 C 84.214844 454.59375 83.113281 449.679688 82.128906 444.738281 C 81.144531 439.796875 80.285156 434.832031 79.546875 429.847656 C 78.808594 424.867188 78.191406 419.867188 77.695312 414.851562 C 77.203125 409.835938 76.832031 404.8125 76.585938 399.78125 C 76.335938 394.75 76.214844 389.714844 76.214844 384.675781 C 76.214844 379.636719 76.335938 374.601562 76.585938 369.566406 C 76.832031 364.535156 77.203125 359.511719 77.695312 354.496094 C 78.191406 349.484375 78.808594 344.484375 79.546875 339.5 C 80.285156 334.515625 81.144531 329.554688 82.128906 324.613281 C 83.113281 319.667969 84.214844 314.753906 85.441406 309.867188 C 86.664062 304.980469 88.007812 300.125 89.472656 295.304688 C 90.933594 290.480469 92.511719 285.699219 94.210938 280.953125 C 95.910156 276.210938 97.722656 271.511719 99.648438 266.855469 C 101.578125 262.203125 103.617188 257.597656 105.773438 253.042969 C 107.925781 248.488281 110.191406 243.988281 112.566406 239.542969 C 114.941406 235.101562 117.425781 230.71875 120.015625 226.394531 C 122.605469 222.074219 125.300781 217.816406 128.101562 213.628906 C 130.898438 209.4375 133.800781 205.320312 136.800781 201.273438 C 139.800781 197.226562 142.902344 193.257812 146.097656 189.359375 C 149.292969 185.464844 152.585938 181.652344 155.96875 177.917969 C 159.351562 174.183594 162.824219 170.539062 166.386719 166.972656 C 169.949219 163.410156 173.597656 159.9375 177.332031 156.554688 C 181.066406 153.171875 184.878906 149.882812 188.773438 146.683594 C 192.667969 143.488281 196.640625 140.390625 200.6875 137.386719 C 204.734375 134.386719 208.851562 131.484375 213.042969 128.6875 C 217.230469 125.886719 221.488281 123.191406 225.808594 120.601562 C 230.132812 118.011719 234.515625 115.527344 238.957031 113.152344 C 243.402344 110.777344 247.898438 108.511719 252.457031 106.359375 C 257.011719 104.203125 261.613281 102.164062 266.269531 100.234375 C 270.925781 98.308594 275.625 96.496094 280.367188 94.796875 C 285.113281 93.101562 289.894531 91.519531 294.71875 90.058594 C 299.539062 88.59375 304.394531 87.25 309.28125 86.027344 C 314.167969 84.800781 319.082031 83.699219 324.023438 82.714844 C 328.96875 81.734375 333.929688 80.871094 338.914062 80.132812 C 343.898438 79.394531 348.898438 78.777344 353.910156 78.28125 C 358.925781 77.789062 363.949219 77.417969 368.980469 77.171875 C 374.015625 76.921875 379.050781 76.800781 384.089844 76.800781 C 389.128906 76.800781 394.164062 76.921875 399.195312 77.171875 C 404.226562 77.417969 409.25 77.789062 414.265625 78.28125 C 419.28125 78.777344 424.277344 79.394531 429.261719 80.132812 C 434.246094 80.871094 439.210938 81.734375 444.152344 82.714844 C 449.09375 83.699219 454.007812 84.800781 458.894531 86.027344 C 463.785156 87.25 468.636719 88.59375 473.460938 90.058594 C 478.28125 91.519531 483.0625 93.101562 487.808594 94.796875 C 492.550781 96.496094 497.253906 98.308594 501.90625 100.234375 C 506.5625 102.164062 511.167969 104.203125 515.722656 106.359375 C 520.277344 108.511719 524.777344 110.777344 529.21875 113.152344 C 533.664062 115.527344 538.046875 118.011719 542.367188 120.601562 C 546.691406 123.191406 550.945312 125.886719 555.136719 128.6875 C 559.324219 131.484375 563.441406 134.386719 567.488281 137.386719 C 571.535156 140.390625 575.507812 143.488281 579.402344 146.683594 C 583.296875 149.882812 587.113281 153.171875 590.84375 156.554688 C 594.578125 159.9375 598.226562 163.410156 601.789062 166.972656 C 605.351562 170.539062 608.824219 174.183594 612.207031 177.917969 C 615.59375 181.652344 618.882812 185.464844 622.078125 189.359375 C 625.277344 193.257812 628.375 197.226562 631.375 201.273438 C 634.378906 205.320312 637.277344 209.4375 640.078125 213.628906 C 642.875 217.816406 645.570312 222.074219 648.160156 226.394531 C 650.753906 230.71875 653.234375 235.101562 655.609375 239.542969 C 657.984375 243.988281 660.25 248.488281 662.402344 253.042969 C 664.558594 257.597656 666.601562 262.203125 668.527344 266.855469 C 670.457031 271.511719 672.269531 276.210938 673.964844 280.953125 C 675.664062 285.699219 677.242188 290.480469 678.707031 295.304688 C 680.167969 300.125 681.511719 304.980469 682.738281 309.867188 C 683.960938 314.753906 685.066406 319.667969 686.046875 324.613281 C 687.03125 329.554688 687.890625 334.515625 688.632812 339.5 C 689.371094 344.484375 689.988281 349.484375 690.480469 354.496094 C 690.976562 359.511719 691.34375 364.535156 691.59375 369.566406 C 691.839844 374.601562 691.964844 379.636719 691.964844 384.675781 Z M 691.964844 384.675781 " fill-opacity="1" fill-rule="nonzero"/></g><g clip-path="url(#9fa53c8b94)"><path fill="#ffffff" d="M 511.160156 185.910156 L 257.042969 185.910156 C 252.660156 185.910156 249.101562 189.464844 249.101562 193.84375 L 249.101562 574.746094 C 249.101562 577.953125 251.039062 580.855469 254.003906 582.078125 C 256.972656 583.316406 260.386719 582.625 262.660156 580.355469 L 384.101562 459 L 505.546875 580.355469 C 507.0625 581.871094 509.097656 582.679688 511.160156 582.679688 C 512.1875 582.679688 513.21875 582.492188 514.203125 582.078125 C 517.171875 580.855469 519.101562 577.953125 519.101562 574.746094 L 519.101562 193.84375 C 519.101562 189.464844 515.554688 185.910156 511.160156 185.910156 Z M 511.160156 185.910156 " fill-opacity="1" fill-rule="nonzero"/></g></svg>